<mxfile host="app.diagrams.net" modified="2021-01-11T08:00:52.063Z" agent="5.0 (Windows NT 10.0; Win64; x64) AppleWebKit/537.36 (KHTML, like Gecko) Chrome/87.0.4280.88 Safari/537.36" etag="IUKrGbOuZKt60H9ixa-e" version="14.1.8" type="github">
  <diagram id="C5RBs43oDa-KdzZeNtuy" name="Page-1">
    <mxGraphModel dx="1598" dy="662" grid="1" gridSize="10" guides="1" tooltips="1" connect="1" arrows="1" fold="1" page="1" pageScale="1" pageWidth="827" pageHeight="1169" math="0" shadow="0">
      <root>
        <mxCell id="WIyWlLk6GJQsqaUBKTNV-0" />
        <mxCell id="WIyWlLk6GJQsqaUBKTNV-1" parent="WIyWlLk6GJQsqaUBKTNV-0" />
        <mxCell id="dRAc4UhqFAkkLW_21VES-0" style="edgeStyle=orthogonalEdgeStyle;rounded=0;orthogonalLoop=1;jettySize=auto;html=1;exitX=0.5;exitY=1;exitDx=0;exitDy=0;entryX=0.5;entryY=0;entryDx=0;entryDy=0;" edge="1" parent="WIyWlLk6GJQsqaUBKTNV-1" source="dRAc4UhqFAkkLW_21VES-1" target="dRAc4UhqFAkkLW_21VES-6">
          <mxGeometry relative="1" as="geometry" />
        </mxCell>
        <mxCell id="dRAc4UhqFAkkLW_21VES-1" value="新手引导第二部分" style="rounded=1;whiteSpace=wrap;html=1;fontSize=12;glass=0;strokeWidth=1;shadow=0;" vertex="1" parent="WIyWlLk6GJQsqaUBKTNV-1">
          <mxGeometry x="-635" y="80" width="120" height="40" as="geometry" />
        </mxCell>
        <mxCell id="dRAc4UhqFAkkLW_21VES-2" style="edgeStyle=orthogonalEdgeStyle;rounded=0;orthogonalLoop=1;jettySize=auto;html=1;exitX=0.5;exitY=1;exitDx=0;exitDy=0;entryX=0.5;entryY=0;entryDx=0;entryDy=0;" edge="1" parent="WIyWlLk6GJQsqaUBKTNV-1" source="dRAc4UhqFAkkLW_21VES-3">
          <mxGeometry relative="1" as="geometry">
            <mxPoint x="-575" y="360" as="targetPoint" />
          </mxGeometry>
        </mxCell>
        <mxCell id="dRAc4UhqFAkkLW_21VES-3" value="Step7:到达星球" style="rounded=0;whiteSpace=wrap;html=1;" vertex="1" parent="WIyWlLk6GJQsqaUBKTNV-1">
          <mxGeometry x="-635" y="300" width="120" height="40" as="geometry" />
        </mxCell>
        <mxCell id="dRAc4UhqFAkkLW_21VES-4" style="edgeStyle=orthogonalEdgeStyle;rounded=0;orthogonalLoop=1;jettySize=auto;html=1;exitX=0.5;exitY=1;exitDx=0;exitDy=0;entryX=0.5;entryY=0;entryDx=0;entryDy=0;" edge="1" parent="WIyWlLk6GJQsqaUBKTNV-1" source="dRAc4UhqFAkkLW_21VES-6" target="dRAc4UhqFAkkLW_21VES-3">
          <mxGeometry relative="1" as="geometry" />
        </mxCell>
        <mxCell id="dRAc4UhqFAkkLW_21VES-5" value="是" style="edgeLabel;html=1;align=center;verticalAlign=middle;resizable=0;points=[];" vertex="1" connectable="0" parent="dRAc4UhqFAkkLW_21VES-4">
          <mxGeometry x="0.7" y="5" relative="1" as="geometry">
            <mxPoint as="offset" />
          </mxGeometry>
        </mxCell>
        <mxCell id="dRAc4UhqFAkkLW_21VES-6" value="读取长期存储PlayerGuide" style="rounded=0;whiteSpace=wrap;html=1;" vertex="1" parent="WIyWlLk6GJQsqaUBKTNV-1">
          <mxGeometry x="-635" y="140" width="120" height="40" as="geometry" />
        </mxCell>
        <mxCell id="dRAc4UhqFAkkLW_21VES-7" value="否" style="edgeStyle=orthogonalEdgeStyle;rounded=0;orthogonalLoop=1;jettySize=auto;html=1;exitX=1;exitY=0.5;exitDx=0;exitDy=0;entryX=0;entryY=0.5;entryDx=0;entryDy=0;" edge="1" parent="WIyWlLk6GJQsqaUBKTNV-1" source="dRAc4UhqFAkkLW_21VES-8" target="dRAc4UhqFAkkLW_21VES-10">
          <mxGeometry relative="1" as="geometry" />
        </mxCell>
        <mxCell id="dRAc4UhqFAkkLW_21VES-8" value="第一次到达星球？" style="rhombus;whiteSpace=wrap;html=1;shadow=0;fontFamily=Helvetica;fontSize=12;align=center;strokeWidth=1;spacing=6;spacingTop=-4;" vertex="1" parent="WIyWlLk6GJQsqaUBKTNV-1">
          <mxGeometry x="-640" y="200" width="130" height="70" as="geometry" />
        </mxCell>
        <mxCell id="dRAc4UhqFAkkLW_21VES-9" style="edgeStyle=orthogonalEdgeStyle;rounded=0;orthogonalLoop=1;jettySize=auto;html=1;exitX=0.5;exitY=1;exitDx=0;exitDy=0;" edge="1" parent="WIyWlLk6GJQsqaUBKTNV-1">
          <mxGeometry relative="1" as="geometry">
            <mxPoint x="-595" y="290" as="sourcePoint" />
            <mxPoint x="-595" y="290" as="targetPoint" />
          </mxGeometry>
        </mxCell>
        <mxCell id="dRAc4UhqFAkkLW_21VES-10" value="跳转相应步骤" style="rounded=0;whiteSpace=wrap;html=1;" vertex="1" parent="WIyWlLk6GJQsqaUBKTNV-1">
          <mxGeometry x="-425" y="215" width="120" height="40" as="geometry" />
        </mxCell>
        <mxCell id="dRAc4UhqFAkkLW_21VES-11" value="恭喜完成了第一次星际旅行，你可以在星球上收集金币、钻石和矿石" style="shape=process;whiteSpace=wrap;html=1;backgroundOutline=1;fillColor=#ffe6cc;strokeColor=#d79b00;" vertex="1" parent="WIyWlLk6GJQsqaUBKTNV-1">
          <mxGeometry x="-465" y="290" width="195" height="60" as="geometry" />
        </mxCell>
        <mxCell id="dRAc4UhqFAkkLW_21VES-12" value="" style="endArrow=none;dashed=1;html=1;dashPattern=1 3;strokeWidth=2;exitX=1;exitY=0.5;exitDx=0;exitDy=0;entryX=0;entryY=0.5;entryDx=0;entryDy=0;" edge="1" parent="WIyWlLk6GJQsqaUBKTNV-1" source="dRAc4UhqFAkkLW_21VES-3" target="dRAc4UhqFAkkLW_21VES-11">
          <mxGeometry width="50" height="50" relative="1" as="geometry">
            <mxPoint x="-385" y="510" as="sourcePoint" />
            <mxPoint x="-335" y="460" as="targetPoint" />
          </mxGeometry>
        </mxCell>
        <mxCell id="dRAc4UhqFAkkLW_21VES-13" style="edgeStyle=orthogonalEdgeStyle;rounded=0;orthogonalLoop=1;jettySize=auto;html=1;exitX=0.5;exitY=1;exitDx=0;exitDy=0;entryX=0.5;entryY=0;entryDx=0;entryDy=0;" edge="1" parent="WIyWlLk6GJQsqaUBKTNV-1" source="dRAc4UhqFAkkLW_21VES-14" target="dRAc4UhqFAkkLW_21VES-16">
          <mxGeometry relative="1" as="geometry" />
        </mxCell>
        <mxCell id="dRAc4UhqFAkkLW_21VES-14" value="点击关闭" style="rounded=0;whiteSpace=wrap;html=1;" vertex="1" parent="WIyWlLk6GJQsqaUBKTNV-1">
          <mxGeometry x="-635" y="430" width="120" height="40" as="geometry" />
        </mxCell>
        <mxCell id="dRAc4UhqFAkkLW_21VES-15" style="edgeStyle=orthogonalEdgeStyle;rounded=0;orthogonalLoop=1;jettySize=auto;html=1;exitX=0.5;exitY=1;exitDx=0;exitDy=0;entryX=0.5;entryY=0;entryDx=0;entryDy=0;" edge="1" parent="WIyWlLk6GJQsqaUBKTNV-1" source="dRAc4UhqFAkkLW_21VES-16" target="dRAc4UhqFAkkLW_21VES-17">
          <mxGeometry relative="1" as="geometry" />
        </mxCell>
        <mxCell id="dRAc4UhqFAkkLW_21VES-16" value="PlayerGuide = 7" style="rounded=0;whiteSpace=wrap;html=1;" vertex="1" parent="WIyWlLk6GJQsqaUBKTNV-1">
          <mxGeometry x="-635" y="490" width="120" height="40" as="geometry" />
        </mxCell>
        <mxCell id="dRAc4UhqFAkkLW_21VES-31" style="edgeStyle=orthogonalEdgeStyle;rounded=0;orthogonalLoop=1;jettySize=auto;html=1;exitX=0.5;exitY=1;exitDx=0;exitDy=0;entryX=0.5;entryY=0;entryDx=0;entryDy=0;" edge="1" parent="WIyWlLk6GJQsqaUBKTNV-1" source="dRAc4UhqFAkkLW_21VES-17" target="dRAc4UhqFAkkLW_21VES-26">
          <mxGeometry relative="1" as="geometry" />
        </mxCell>
        <mxCell id="dRAc4UhqFAkkLW_21VES-17" value="Step8-1:出售矿物" style="rounded=0;whiteSpace=wrap;html=1;" vertex="1" parent="WIyWlLk6GJQsqaUBKTNV-1">
          <mxGeometry x="-635" y="550" width="120" height="50" as="geometry" />
        </mxCell>
        <mxCell id="dRAc4UhqFAkkLW_21VES-19" style="edgeStyle=orthogonalEdgeStyle;rounded=0;orthogonalLoop=1;jettySize=auto;html=1;exitX=0.5;exitY=1;exitDx=0;exitDy=0;entryX=0.5;entryY=0;entryDx=0;entryDy=0;" edge="1" parent="WIyWlLk6GJQsqaUBKTNV-1" source="dRAc4UhqFAkkLW_21VES-18" target="dRAc4UhqFAkkLW_21VES-14">
          <mxGeometry relative="1" as="geometry" />
        </mxCell>
        <mxCell id="dRAc4UhqFAkkLW_21VES-18" value="介绍" style="rounded=0;whiteSpace=wrap;html=1;" vertex="1" parent="WIyWlLk6GJQsqaUBKTNV-1">
          <mxGeometry x="-635" y="360" width="120" height="40" as="geometry" />
        </mxCell>
        <mxCell id="dRAc4UhqFAkkLW_21VES-20" value="开始你的冒险吧！" style="shape=process;whiteSpace=wrap;html=1;backgroundOutline=1;fillColor=#ffe6cc;strokeColor=#d79b00;" vertex="1" parent="WIyWlLk6GJQsqaUBKTNV-1">
          <mxGeometry x="-465" y="350" width="195" height="60" as="geometry" />
        </mxCell>
        <mxCell id="dRAc4UhqFAkkLW_21VES-22" value="" style="endArrow=none;dashed=1;html=1;dashPattern=1 3;strokeWidth=2;exitX=1;exitY=0.5;exitDx=0;exitDy=0;entryX=0;entryY=0.5;entryDx=0;entryDy=0;" edge="1" parent="WIyWlLk6GJQsqaUBKTNV-1" source="dRAc4UhqFAkkLW_21VES-18" target="dRAc4UhqFAkkLW_21VES-20">
          <mxGeometry width="50" height="50" relative="1" as="geometry">
            <mxPoint x="-505" y="330" as="sourcePoint" />
            <mxPoint x="-455" y="330" as="targetPoint" />
          </mxGeometry>
        </mxCell>
        <mxCell id="dRAc4UhqFAkkLW_21VES-23" value="在星球上收集矿石可在商店换取金币" style="shape=process;whiteSpace=wrap;html=1;backgroundOutline=1;fillColor=#ffe6cc;strokeColor=#d79b00;" vertex="1" parent="WIyWlLk6GJQsqaUBKTNV-1">
          <mxGeometry x="-462.5" y="545" width="195" height="60" as="geometry" />
        </mxCell>
        <mxCell id="dRAc4UhqFAkkLW_21VES-24" value="" style="endArrow=none;dashed=1;html=1;dashPattern=1 3;strokeWidth=2;exitX=1;exitY=0.5;exitDx=0;exitDy=0;entryX=0;entryY=0.5;entryDx=0;entryDy=0;" edge="1" parent="WIyWlLk6GJQsqaUBKTNV-1" source="dRAc4UhqFAkkLW_21VES-17" target="dRAc4UhqFAkkLW_21VES-23">
          <mxGeometry width="50" height="50" relative="1" as="geometry">
            <mxPoint x="-505" y="390" as="sourcePoint" />
            <mxPoint x="-455" y="390" as="targetPoint" />
          </mxGeometry>
        </mxCell>
        <mxCell id="dRAc4UhqFAkkLW_21VES-37" style="edgeStyle=orthogonalEdgeStyle;rounded=0;orthogonalLoop=1;jettySize=auto;html=1;exitX=0.5;exitY=1;exitDx=0;exitDy=0;" edge="1" parent="WIyWlLk6GJQsqaUBKTNV-1" source="dRAc4UhqFAkkLW_21VES-25" target="dRAc4UhqFAkkLW_21VES-35">
          <mxGeometry relative="1" as="geometry" />
        </mxCell>
        <mxCell id="dRAc4UhqFAkkLW_21VES-25" value="点击关闭" style="rounded=0;whiteSpace=wrap;html=1;" vertex="1" parent="WIyWlLk6GJQsqaUBKTNV-1">
          <mxGeometry x="-635" y="680" width="120" height="40" as="geometry" />
        </mxCell>
        <mxCell id="dRAc4UhqFAkkLW_21VES-33" style="edgeStyle=orthogonalEdgeStyle;rounded=0;orthogonalLoop=1;jettySize=auto;html=1;exitX=0.5;exitY=1;exitDx=0;exitDy=0;entryX=0.5;entryY=0;entryDx=0;entryDy=0;" edge="1" parent="WIyWlLk6GJQsqaUBKTNV-1" source="dRAc4UhqFAkkLW_21VES-26" target="dRAc4UhqFAkkLW_21VES-25">
          <mxGeometry relative="1" as="geometry" />
        </mxCell>
        <mxCell id="dRAc4UhqFAkkLW_21VES-26" value="转镜头" style="rounded=0;whiteSpace=wrap;html=1;" vertex="1" parent="WIyWlLk6GJQsqaUBKTNV-1">
          <mxGeometry x="-635" y="620" width="120" height="40" as="geometry" />
        </mxCell>
        <mxCell id="dRAc4UhqFAkkLW_21VES-29" value="注：屏UI（所有）" style="text;html=1;strokeColor=none;fillColor=none;align=center;verticalAlign=middle;whiteSpace=wrap;rounded=0;" vertex="1" parent="WIyWlLk6GJQsqaUBKTNV-1">
          <mxGeometry x="-462.5" y="630" width="110" height="20" as="geometry" />
        </mxCell>
        <mxCell id="dRAc4UhqFAkkLW_21VES-55" style="edgeStyle=orthogonalEdgeStyle;rounded=0;orthogonalLoop=1;jettySize=auto;html=1;exitX=0.5;exitY=1;exitDx=0;exitDy=0;" edge="1" parent="WIyWlLk6GJQsqaUBKTNV-1" source="dRAc4UhqFAkkLW_21VES-35" target="dRAc4UhqFAkkLW_21VES-54">
          <mxGeometry relative="1" as="geometry" />
        </mxCell>
        <mxCell id="dRAc4UhqFAkkLW_21VES-35" value="PlayerGuide = 8-1" style="rounded=0;whiteSpace=wrap;html=1;" vertex="1" parent="WIyWlLk6GJQsqaUBKTNV-1">
          <mxGeometry x="-635" y="740" width="120" height="40" as="geometry" />
        </mxCell>
        <mxCell id="dRAc4UhqFAkkLW_21VES-57" style="edgeStyle=orthogonalEdgeStyle;rounded=0;orthogonalLoop=1;jettySize=auto;html=1;exitX=0.5;exitY=1;exitDx=0;exitDy=0;entryX=0.5;entryY=0;entryDx=0;entryDy=0;" edge="1" parent="WIyWlLk6GJQsqaUBKTNV-1" source="dRAc4UhqFAkkLW_21VES-42" target="dRAc4UhqFAkkLW_21VES-52">
          <mxGeometry relative="1" as="geometry" />
        </mxCell>
        <mxCell id="dRAc4UhqFAkkLW_21VES-42" value="传送至商店前" style="rounded=0;whiteSpace=wrap;html=1;" vertex="1" parent="WIyWlLk6GJQsqaUBKTNV-1">
          <mxGeometry x="-635" y="975" width="120" height="40" as="geometry" />
        </mxCell>
        <mxCell id="dRAc4UhqFAkkLW_21VES-43" value="是" style="edgeLabel;html=1;align=center;verticalAlign=middle;resizable=0;points=[];" vertex="1" connectable="0" parent="WIyWlLk6GJQsqaUBKTNV-1">
          <mxGeometry x="-560" y="955" as="geometry" />
        </mxCell>
        <mxCell id="dRAc4UhqFAkkLW_21VES-44" value="否" style="edgeStyle=orthogonalEdgeStyle;rounded=0;orthogonalLoop=1;jettySize=auto;html=1;exitX=1;exitY=0.5;exitDx=0;exitDy=0;entryX=0;entryY=0.5;entryDx=0;entryDy=0;" edge="1" parent="WIyWlLk6GJQsqaUBKTNV-1" source="dRAc4UhqFAkkLW_21VES-45" target="dRAc4UhqFAkkLW_21VES-47">
          <mxGeometry relative="1" as="geometry" />
        </mxCell>
        <mxCell id="dRAc4UhqFAkkLW_21VES-51" style="edgeStyle=orthogonalEdgeStyle;rounded=0;orthogonalLoop=1;jettySize=auto;html=1;exitX=0.5;exitY=1;exitDx=0;exitDy=0;" edge="1" parent="WIyWlLk6GJQsqaUBKTNV-1" source="dRAc4UhqFAkkLW_21VES-45" target="dRAc4UhqFAkkLW_21VES-42">
          <mxGeometry relative="1" as="geometry" />
        </mxCell>
        <mxCell id="dRAc4UhqFAkkLW_21VES-45" value="是否现在就去&lt;br&gt;出售矿石？" style="rhombus;whiteSpace=wrap;html=1;shadow=0;fontFamily=Helvetica;fontSize=12;align=center;strokeWidth=1;spacing=6;spacingTop=-4;fillColor=#ffe6cc;strokeColor=#d79b00;" vertex="1" parent="WIyWlLk6GJQsqaUBKTNV-1">
          <mxGeometry x="-640" y="870" width="130" height="70" as="geometry" />
        </mxCell>
        <mxCell id="dRAc4UhqFAkkLW_21VES-46" style="edgeStyle=orthogonalEdgeStyle;rounded=0;orthogonalLoop=1;jettySize=auto;html=1;exitX=0.5;exitY=1;exitDx=0;exitDy=0;" edge="1" parent="WIyWlLk6GJQsqaUBKTNV-1">
          <mxGeometry relative="1" as="geometry">
            <mxPoint x="-595" y="975" as="sourcePoint" />
            <mxPoint x="-595" y="975" as="targetPoint" />
          </mxGeometry>
        </mxCell>
        <mxCell id="dRAc4UhqFAkkLW_21VES-58" style="edgeStyle=orthogonalEdgeStyle;rounded=0;orthogonalLoop=1;jettySize=auto;html=1;exitX=0.5;exitY=1;exitDx=0;exitDy=0;entryX=1;entryY=0.5;entryDx=0;entryDy=0;" edge="1" parent="WIyWlLk6GJQsqaUBKTNV-1" source="dRAc4UhqFAkkLW_21VES-47" target="dRAc4UhqFAkkLW_21VES-52">
          <mxGeometry relative="1" as="geometry" />
        </mxCell>
        <mxCell id="dRAc4UhqFAkkLW_21VES-47" value="不做操作" style="rounded=0;whiteSpace=wrap;html=1;" vertex="1" parent="WIyWlLk6GJQsqaUBKTNV-1">
          <mxGeometry x="-440" y="885" width="120" height="40" as="geometry" />
        </mxCell>
        <mxCell id="dRAc4UhqFAkkLW_21VES-60" style="edgeStyle=orthogonalEdgeStyle;rounded=0;orthogonalLoop=1;jettySize=auto;html=1;exitX=0.5;exitY=1;exitDx=0;exitDy=0;entryX=0.5;entryY=0;entryDx=0;entryDy=0;" edge="1" parent="WIyWlLk6GJQsqaUBKTNV-1" source="dRAc4UhqFAkkLW_21VES-52" target="dRAc4UhqFAkkLW_21VES-59">
          <mxGeometry relative="1" as="geometry" />
        </mxCell>
        <mxCell id="dRAc4UhqFAkkLW_21VES-52" value="PlayerGuide = 8-2" style="rounded=0;whiteSpace=wrap;html=1;" vertex="1" parent="WIyWlLk6GJQsqaUBKTNV-1">
          <mxGeometry x="-635" y="1035" width="120" height="40" as="geometry" />
        </mxCell>
        <mxCell id="dRAc4UhqFAkkLW_21VES-56" style="edgeStyle=orthogonalEdgeStyle;rounded=0;orthogonalLoop=1;jettySize=auto;html=1;exitX=0.5;exitY=1;exitDx=0;exitDy=0;entryX=0.5;entryY=0;entryDx=0;entryDy=0;" edge="1" parent="WIyWlLk6GJQsqaUBKTNV-1" source="dRAc4UhqFAkkLW_21VES-54" target="dRAc4UhqFAkkLW_21VES-45">
          <mxGeometry relative="1" as="geometry" />
        </mxCell>
        <mxCell id="dRAc4UhqFAkkLW_21VES-54" value="Step8-2:出售矿物" style="rounded=0;whiteSpace=wrap;html=1;" vertex="1" parent="WIyWlLk6GJQsqaUBKTNV-1">
          <mxGeometry x="-635" y="800" width="120" height="50" as="geometry" />
        </mxCell>
        <mxCell id="dRAc4UhqFAkkLW_21VES-59" value="PlayerGuide = 9" style="rounded=0;whiteSpace=wrap;html=1;" vertex="1" parent="WIyWlLk6GJQsqaUBKTNV-1">
          <mxGeometry x="-635" y="1100" width="120" height="40" as="geometry" />
        </mxCell>
        <mxCell id="dRAc4UhqFAkkLW_21VES-61" value="注：完成新手引导" style="text;html=1;strokeColor=none;fillColor=none;align=center;verticalAlign=middle;whiteSpace=wrap;rounded=0;" vertex="1" parent="WIyWlLk6GJQsqaUBKTNV-1">
          <mxGeometry x="-462.5" y="1110" width="110" height="20" as="geometry" />
        </mxCell>
      </root>
    </mxGraphModel>
  </diagram>
</mxfile>
